<svg xmlns="http://www.w3.org/2000/svg" xmlns:cc="http://web.resource.org/cc/" xmlns:svg="http://www.w3.org/2000/svg" xmlns:xlink="http://www.w3.org/1999/xlink" id="svg1374" width="16" height="16"><defs id="defs3"><radialGradient id="radialGradient22551" cx="297.261" cy="167.356" r="7.714" fx="297.307" fy="167.31" gradientUnits="userSpaceOnUse" xlink:href="#linearGradient3769"/><radialGradient id="radialGradient22549" cx="293.637" cy="173.688" r="16.054" fx="293.637" fy="173.688" gradientUnits="userSpaceOnUse" xlink:href="#linearGradient3775"/><radialGradient id="radialGradient22547" cx="293.517" cy="166.397" r="14.442" fx="293.649" fy="166.154" gradientUnits="userSpaceOnUse" xlink:href="#linearGradient3737"/><radialGradient id="radialGradient22545" cx="292.793" cy="182.194" r="16.773" fx="292.919" fy="182.923" gradientUnits="userSpaceOnUse" xlink:href="#linearGradient3725"/><linearGradient id="linearGradient3769"><stop id="stop3771" offset="0" style="stop-color:#fff;stop-opacity:.58415842"/><stop id="stop3773" offset="1" style="stop-color:#dcd7ff;stop-opacity:0"/></linearGradient><radialGradient id="radialGradient22543" cx="297.261" cy="167.356" r="7.714" fx="297.307" fy="167.31" gradientUnits="userSpaceOnUse" xlink:href="#linearGradient3769"/><linearGradient id="linearGradient3775"><stop id="stop3777" offset="0" style="stop-color:#fff;stop-opacity:0"/><stop id="stop3783" offset=".98" style="stop-color:#fff;stop-opacity:.03960396"/><stop id="stop3779" offset="1" style="stop-color:#fff;stop-opacity:.07920792"/></linearGradient><radialGradient id="radialGradient22541" cx="293.637" cy="173.688" r="16.054" fx="293.637" fy="173.688" gradientUnits="userSpaceOnUse" xlink:href="#linearGradient3775"/><radialGradient id="radialGradient22539" cx="293.517" cy="166.397" r="14.442" fx="293.649" fy="166.154" gradientUnits="userSpaceOnUse" xlink:href="#linearGradient3737"/><radialGradient id="radialGradient22537" cx="292.793" cy="182.194" r="16.773" fx="292.919" fy="182.923" gradientUnits="userSpaceOnUse" xlink:href="#linearGradient3725"/><linearGradient id="linearGradient3737"><stop id="stop3739" offset="0" style="stop-color:#fff;stop-opacity:.25098041"/><stop id="stop3787" offset=".577" style="stop-color:#fff;stop-opacity:.1254902"/><stop id="stop3741" offset="1" style="stop-color:#fff;stop-opacity:0"/></linearGradient><radialGradient id="radialGradient22535" cx="293.517" cy="166.397" r="14.442" fx="293.649" fy="166.154" gradientUnits="userSpaceOnUse" xlink:href="#linearGradient3737"/><linearGradient id="linearGradient3725"><stop id="stop3727" offset="0" style="stop-color:#020202;stop-opacity:.24752475"/><stop id="stop3789" offset=".423" style="stop-color:#000;stop-opacity:.1254902"/><stop id="stop3729" offset="1" style="stop-color:#000;stop-opacity:0"/></linearGradient><radialGradient id="radialGradient22533" cx="292.793" cy="182.194" r="16.773" fx="292.919" fy="182.923" gradientUnits="userSpaceOnUse" xlink:href="#linearGradient3725"/><linearGradient id="linearGradient2098"><stop id="stop2100" offset="0" style="stop-color:#003f00;stop-opacity:1"/><stop id="stop2102" offset="1" style="stop-color:#319f31;stop-opacity:1"/></linearGradient><linearGradient id="linearGradient22531" x1="278.083" x2="309.191" y1="173.688" y2="173.688" gradientUnits="userSpaceOnUse" xlink:href="#linearGradient2098"/><linearGradient id="linearGradient2106"><stop id="stop2108" offset="0" style="stop-color:#006200;stop-opacity:1"/><stop id="stop2110" offset="1" style="stop-color:#002000;stop-opacity:.96039605"/></linearGradient><linearGradient id="linearGradient22529" x1="497.25" x2="512.218" y1="138.844" y2="131.126" gradientTransform="matrix(0.823983,0.000000,0.000000,1.213617,-236.0338,-109.4693)" gradientUnits="userSpaceOnUse" xlink:href="#linearGradient2106"/><linearGradient id="linearGradient3275" x1="497.25" x2="512.218" y1="138.844" y2="131.126" gradientTransform="matrix(0.823983,0.000000,0.000000,1.213617,-236.0338,-109.4693)" gradientUnits="userSpaceOnUse" xlink:href="#linearGradient2106"/><linearGradient id="linearGradient3277" x1="278.083" x2="309.191" y1="173.688" y2="173.688" gradientUnits="userSpaceOnUse" xlink:href="#linearGradient2098"/><radialGradient id="radialGradient3279" cx="292.793" cy="182.194" r="16.773" fx="292.919" fy="182.923" gradientUnits="userSpaceOnUse" xlink:href="#linearGradient3725"/><radialGradient id="radialGradient3281" cx="293.517" cy="166.397" r="14.442" fx="293.649" fy="166.154" gradientUnits="userSpaceOnUse" xlink:href="#linearGradient3737"/><radialGradient id="radialGradient3283" cx="292.793" cy="182.194" r="16.773" fx="292.919" fy="182.923" gradientUnits="userSpaceOnUse" xlink:href="#linearGradient3725"/><radialGradient id="radialGradient3285" cx="293.517" cy="166.397" r="14.442" fx="293.649" fy="166.154" gradientUnits="userSpaceOnUse" xlink:href="#linearGradient3737"/><radialGradient id="radialGradient3287" cx="293.637" cy="173.688" r="16.054" fx="293.637" fy="173.688" gradientUnits="userSpaceOnUse" xlink:href="#linearGradient3775"/><radialGradient id="radialGradient3289" cx="297.261" cy="167.356" r="7.714" fx="297.307" fy="167.31" gradientUnits="userSpaceOnUse" xlink:href="#linearGradient3769"/><radialGradient id="radialGradient3291" cx="292.793" cy="182.194" r="16.773" fx="292.919" fy="182.923" gradientUnits="userSpaceOnUse" xlink:href="#linearGradient3725"/><radialGradient id="radialGradient3293" cx="293.517" cy="166.397" r="14.442" fx="293.649" fy="166.154" gradientUnits="userSpaceOnUse" xlink:href="#linearGradient3737"/><radialGradient id="radialGradient3295" cx="293.637" cy="173.688" r="16.054" fx="293.637" fy="173.688" gradientUnits="userSpaceOnUse" xlink:href="#linearGradient3775"/><radialGradient id="radialGradient3297" cx="297.261" cy="167.356" r="7.714" fx="297.307" fy="167.31" gradientUnits="userSpaceOnUse" xlink:href="#linearGradient3769"/></defs><metadata id="metadata4"/><g id="layer1"><g id="g3239" transform="matrix(0.285407,0.000000,0.000000,0.285407,-39.07644,-10.77508)"><path style="fill:url(#linearGradient3275);fill-opacity:1;stroke:none;stroke-width:1" id="path3241" d="M 188.89292,44.760980 C 176.35292,49.120980 172.53292,57.850980 173.98292,65.480980 C 175.44292,73.120980 179.07292,74.390980 193.07292,72.570980 C 183.80292,65.670980 179.44292,59.670980 188.89292,44.760980 z"/><g id="g3243" transform="translate(-237.1827,-109.6991)"><path id="path3245" d="M 309.19146 173.68797 A 15.554159 15.554159 0 1 1 278.08314,173.68797 A 15.554159 15.554159 0 1 1 309.19146 173.68797 z" transform="matrix(1.357648,0.000000,0.000000,0.754363,-2.043468,43.23668)" style="fill:url(#linearGradient3277);fill-opacity:1;stroke:none"/><path id="path3247" d="M 309.19146 173.68797 A 15.554159 15.554159 0 1 1 278.08314,173.68797 A 15.554159 15.554159 0 1 1 309.19146 173.68797 z" transform="matrix(1.357648,0.000000,0.000000,0.754363,-2.043468,43.23668)" style="fill:url(#radialGradient3279);fill-opacity:1;stroke:none"/><path id="path3249" d="M 309.19146 173.68797 A 15.554159 15.554159 0 1 1 278.08314,173.68797 A 15.554159 15.554159 0 1 1 309.19146 173.68797 z" transform="matrix(1.357648,0.000000,0.000000,0.754363,-2.043468,43.23668)" style="fill:url(#radialGradient3281);fill-opacity:1;stroke:none;stroke-opacity:1"/></g><g id="g3251"><path id="path3253" d="M 309.19146 173.68797 A 15.554159 15.554159 0 1 1 278.08314,173.68797 A 15.554159 15.554159 0 1 1 309.19146 173.68797 z" transform="matrix(0.305325,0.000000,0.000000,0.297351,52.22804,8.902103)" style="fill:#eaeaea;fill-opacity:1;stroke:none"/><path id="path3255" d="M 309.19146 173.68797 A 15.554159 15.554159 0 1 1 278.08314,173.68797 A 15.554159 15.554159 0 1 1 309.19146 173.68797 z" transform="matrix(0.305325,0.000000,0.000000,0.297351,52.22804,8.902103)" style="fill:url(#radialGradient3283);fill-opacity:1;stroke:none"/><path id="path3257" d="M 309.19146 173.68797 A 15.554159 15.554159 0 1 1 278.08314,173.68797 A 15.554159 15.554159 0 1 1 309.19146 173.68797 z" transform="matrix(0.305325,0.000000,0.000000,0.297351,52.22804,8.902103)" style="fill:url(#radialGradient3285);fill-opacity:1;stroke:url(#radialGradient3287);stroke-opacity:1"/><path id="path3259" d="M 360.53069 177.23495 A 3.9148138 3.9148138 0 1 1 352.70106,177.23495 A 3.9148138 3.9148138 0 1 1 360.53069 177.23495 z" transform="matrix(0.582483,0.000000,0.000000,0.561567,-66.35254,-39.32076)" style="fill:#404040;fill-opacity:1;stroke:none"/><path id="path3261" d="M 300.36342 168.64339 A 2.9426789 2.9426789 0 1 1 294.47807,168.64339 A 2.9426789 2.9426789 0 1 1 300.36342 168.64339 z" transform="matrix(0.308390,0.000000,0.000000,0.412793,49.94549,-11.31996)" style="fill:url(#radialGradient3289);fill-opacity:1;stroke:none"/></g><g id="g3263"><path id="path3265" d="M 309.19146 173.68797 A 15.554159 15.554159 0 1 1 278.08314,173.68797 A 15.554159 15.554159 0 1 1 309.19146 173.68797 z" transform="matrix(0.355197,0.000000,0.000000,0.345921,44.96393,1.489673)" style="fill:#eaeaea;fill-opacity:1;stroke:none"/><path id="path3267" d="M 309.19146 173.68797 A 15.554159 15.554159 0 1 1 278.08314,173.68797 A 15.554159 15.554159 0 1 1 309.19146 173.68797 z" transform="matrix(0.355197,0.000000,0.000000,0.345921,44.96393,1.489673)" style="fill:url(#radialGradient3291);fill-opacity:1;stroke:none"/><path id="path3269" d="M 309.19146 173.68797 A 15.554159 15.554159 0 1 1 278.08314,173.68797 A 15.554159 15.554159 0 1 1 309.19146 173.68797 z" transform="matrix(0.355197,0.000000,0.000000,0.345921,44.96393,1.489673)" style="fill:url(#radialGradient3293);fill-opacity:1;stroke:url(#radialGradient3295);stroke-opacity:1"/><path id="path3271" d="M 360.53069 177.23495 A 3.9148138 3.9148138 0 1 1 352.70106,177.23495 A 3.9148138 3.9148138 0 1 1 360.53069 177.23495 z" transform="matrix(0.677626,0.000000,0.000000,0.653293,-92.98569,-54.60994)" style="fill:#3f3f3f;fill-opacity:1;stroke:none"/><path id="path3273" d="M 300.36342 168.64339 A 2.9426789 2.9426789 0 1 1 294.47807,168.64339 A 2.9426789 2.9426789 0 1 1 300.36342 168.64339 z" transform="matrix(0.358762,0.000000,0.000000,0.480218,42.30855,-22.03548)" style="fill:url(#radialGradient3297);fill-opacity:1;stroke:none"/></g></g></g></svg>