<svg xmlns="http://www.w3.org/2000/svg" xmlns:cc="http://web.resource.org/cc/" xmlns:svg="http://www.w3.org/2000/svg" xmlns:xlink="http://www.w3.org/1999/xlink" id="svg22444" width="48" height="48"><defs id="defs3"><radialGradient id="radialGradient2263" cx="297.261" cy="167.356" r="7.714" fx="297.307" fy="167.31" gradientUnits="userSpaceOnUse" xlink:href="#linearGradient3769"/><radialGradient id="radialGradient2261" cx="293.637" cy="173.688" r="16.054" fx="293.637" fy="173.688" gradientUnits="userSpaceOnUse" xlink:href="#linearGradient3775"/><radialGradient id="radialGradient2259" cx="293.517" cy="166.397" r="14.442" fx="293.649" fy="166.154" gradientUnits="userSpaceOnUse" xlink:href="#linearGradient3737"/><radialGradient id="radialGradient2257" cx="292.793" cy="182.194" r="16.773" fx="292.919" fy="182.923" gradientUnits="userSpaceOnUse" xlink:href="#linearGradient3725"/><radialGradient id="radialGradient2255" cx="297.261" cy="167.356" r="7.714" fx="297.307" fy="167.31" gradientUnits="userSpaceOnUse" xlink:href="#linearGradient3769"/><radialGradient id="radialGradient2253" cx="293.637" cy="173.688" r="16.054" fx="293.637" fy="173.688" gradientUnits="userSpaceOnUse" xlink:href="#linearGradient3775"/><radialGradient id="radialGradient2251" cx="293.517" cy="166.397" r="14.442" fx="293.649" fy="166.154" gradientUnits="userSpaceOnUse" xlink:href="#linearGradient3737"/><radialGradient id="radialGradient2249" cx="292.793" cy="182.194" r="16.773" fx="292.919" fy="182.923" gradientUnits="userSpaceOnUse" xlink:href="#linearGradient3725"/><linearGradient id="linearGradient2247" x1="497.25" x2="512.218" y1="138.844" y2="131.126" gradientTransform="matrix(-1.175523,-3.495348e-2,-5.497797e-2,1.318191,682.3556,-115.3852)" gradientUnits="userSpaceOnUse" xlink:href="#linearGradient2106"/><linearGradient id="linearGradient2090"><stop id="stop2092" offset="0" style="stop-color:#00a482;stop-opacity:.31683168"/><stop id="stop17794" offset=".808" style="stop-color:#12244c;stop-opacity:.41584158"/><stop id="stop2094" offset="1" style="stop-color:#1e31a4;stop-opacity:0"/></linearGradient><linearGradient id="linearGradient15225" x1="547.553" x2="405.351" y1="479.453" y2="82.096" gradientTransform="matrix(0.427382,0.000000,0.000000,0.452061,-150.3320,-56.47006)" gradientUnits="userSpaceOnUse" xlink:href="#linearGradient2090"/><radialGradient id="radialGradient3402" cx="297.261" cy="167.356" r="7.714" fx="297.307" fy="167.31" gradientUnits="userSpaceOnUse" xlink:href="#linearGradient3769"/><radialGradient id="radialGradient3400" cx="293.637" cy="173.688" r="16.054" fx="293.637" fy="173.688" gradientUnits="userSpaceOnUse" xlink:href="#linearGradient3775"/><radialGradient id="radialGradient3398" cx="293.517" cy="166.397" r="14.442" fx="293.649" fy="166.154" gradientUnits="userSpaceOnUse" xlink:href="#linearGradient3737"/><radialGradient id="radialGradient3396" cx="292.793" cy="182.194" r="16.773" fx="292.919" fy="182.923" gradientUnits="userSpaceOnUse" xlink:href="#linearGradient3725"/><linearGradient id="linearGradient3769"><stop id="stop3771" offset="0" style="stop-color:#fff;stop-opacity:.58415842"/><stop id="stop3773" offset="1" style="stop-color:#dcd7ff;stop-opacity:0"/></linearGradient><radialGradient id="radialGradient3394" cx="297.261" cy="167.356" r="7.714" fx="297.307" fy="167.31" gradientUnits="userSpaceOnUse" xlink:href="#linearGradient3769"/><linearGradient id="linearGradient3775"><stop id="stop3777" offset="0" style="stop-color:#fff;stop-opacity:0"/><stop id="stop3783" offset=".98" style="stop-color:#fff;stop-opacity:.03960396"/><stop id="stop3779" offset="1" style="stop-color:#fff;stop-opacity:.07920792"/></linearGradient><radialGradient id="radialGradient3392" cx="293.637" cy="173.688" r="16.054" fx="293.637" fy="173.688" gradientUnits="userSpaceOnUse" xlink:href="#linearGradient3775"/><radialGradient id="radialGradient3390" cx="293.517" cy="166.397" r="14.442" fx="293.649" fy="166.154" gradientUnits="userSpaceOnUse" xlink:href="#linearGradient3737"/><radialGradient id="radialGradient3388" cx="292.793" cy="182.194" r="16.773" fx="292.919" fy="182.923" gradientUnits="userSpaceOnUse" xlink:href="#linearGradient3725"/><linearGradient id="linearGradient3737"><stop id="stop3739" offset="0" style="stop-color:#fff;stop-opacity:.25098041"/><stop id="stop3787" offset=".577" style="stop-color:#fff;stop-opacity:.1254902"/><stop id="stop3741" offset="1" style="stop-color:#fff;stop-opacity:0"/></linearGradient><radialGradient id="radialGradient3386" cx="293.517" cy="166.397" r="14.442" fx="293.649" fy="166.154" gradientUnits="userSpaceOnUse" xlink:href="#linearGradient3737"/><linearGradient id="linearGradient3725"><stop id="stop3727" offset="0" style="stop-color:#020202;stop-opacity:.24752475"/><stop id="stop3789" offset=".423" style="stop-color:#000;stop-opacity:.1254902"/><stop id="stop3729" offset="1" style="stop-color:#000;stop-opacity:0"/></linearGradient><radialGradient id="radialGradient3384" cx="292.793" cy="182.194" r="16.773" fx="292.919" fy="182.923" gradientUnits="userSpaceOnUse" xlink:href="#linearGradient3725"/><linearGradient id="linearGradient2098"><stop id="stop2100" offset="0" style="stop-color:#003f00;stop-opacity:1"/><stop id="stop2102" offset="1" style="stop-color:#319f31;stop-opacity:1"/></linearGradient><linearGradient id="linearGradient3382" x1="278.083" x2="309.191" y1="173.688" y2="173.688" gradientUnits="userSpaceOnUse" xlink:href="#linearGradient2098"/><linearGradient id="linearGradient2106"><stop id="stop2108" offset="0" style="stop-color:#006200;stop-opacity:1"/><stop id="stop2110" offset="1" style="stop-color:#002000;stop-opacity:.96039605"/></linearGradient><linearGradient id="linearGradient3380" x1="497.25" x2="512.218" y1="138.844" y2="131.126" gradientTransform="matrix(0.823983,0.000000,0.000000,1.213617,-236.0338,-109.4693)" gradientUnits="userSpaceOnUse" xlink:href="#linearGradient2106"/><linearGradient id="linearGradient22529" x1="497.25" x2="512.218" y1="138.844" y2="131.126" gradientTransform="matrix(0.823983,0.000000,0.000000,1.213617,-236.0338,-109.4693)" gradientUnits="userSpaceOnUse" xlink:href="#linearGradient2106"/><linearGradient id="linearGradient22531" x1="278.083" x2="309.191" y1="173.688" y2="173.688" gradientUnits="userSpaceOnUse" xlink:href="#linearGradient2098"/><radialGradient id="radialGradient22533" cx="292.793" cy="182.194" r="16.773" fx="292.919" fy="182.923" gradientUnits="userSpaceOnUse" xlink:href="#linearGradient3725"/><radialGradient id="radialGradient22535" cx="293.517" cy="166.397" r="14.442" fx="293.649" fy="166.154" gradientUnits="userSpaceOnUse" xlink:href="#linearGradient3737"/><radialGradient id="radialGradient22537" cx="292.793" cy="182.194" r="16.773" fx="292.919" fy="182.923" gradientUnits="userSpaceOnUse" xlink:href="#linearGradient3725"/><radialGradient id="radialGradient22539" cx="293.517" cy="166.397" r="14.442" fx="293.649" fy="166.154" gradientUnits="userSpaceOnUse" xlink:href="#linearGradient3737"/><radialGradient id="radialGradient22541" cx="293.637" cy="173.688" r="16.054" fx="293.637" fy="173.688" gradientUnits="userSpaceOnUse" xlink:href="#linearGradient3775"/><radialGradient id="radialGradient22543" cx="297.261" cy="167.356" r="7.714" fx="297.307" fy="167.31" gradientUnits="userSpaceOnUse" xlink:href="#linearGradient3769"/><radialGradient id="radialGradient22545" cx="292.793" cy="182.194" r="16.773" fx="292.919" fy="182.923" gradientUnits="userSpaceOnUse" xlink:href="#linearGradient3725"/><radialGradient id="radialGradient22547" cx="293.517" cy="166.397" r="14.442" fx="293.649" fy="166.154" gradientUnits="userSpaceOnUse" xlink:href="#linearGradient3737"/><radialGradient id="radialGradient22549" cx="293.637" cy="173.688" r="16.054" fx="293.637" fy="173.688" gradientUnits="userSpaceOnUse" xlink:href="#linearGradient3775"/><radialGradient id="radialGradient22551" cx="297.261" cy="167.356" r="7.714" fx="297.307" fy="167.31" gradientUnits="userSpaceOnUse" xlink:href="#linearGradient3769"/><linearGradient id="linearGradient22554" x1="86.064" x2="62.452" y1="155.836" y2="-4.606" gradientTransform="scale(0.972321,1.028467)" gradientUnits="userSpaceOnUse" xlink:href="#linearGradient2090"/></defs><metadata id="metadata4"/><g id="layer1"><path style="opacity:0;stroke-width:1;stroke:none;fill-opacity:1;fill:url(#linearGradient22554)" id="babl" d="M 6.3076266,-45.118406 C 6.3076266,-45.118406 6.2329024,33.011302 6.2329024,33.011302 C 6.2329024,33.011302 15.023866,33.011302 15.023866,33.011302 C 15.023866,33.011302 15.023866,44.000000 15.023866,44.000000 C 15.023866,44.000000 4.0000000,44.000000 4.0000000,44.000000 C 4.0000000,44.000000 4.0000000,-45.008516 4.0000000,-45.008516 C 4.0000000,-45.008516 6.3076266,-45.118406 6.3076266,-45.118406 z M 6.2329024,41.767099 C 6.2329024,41.767099 12.790961,41.767099 12.790961,41.767099 C 12.790961,41.767099 12.790961,35.244202 12.790961,35.244202 C 12.790961,35.244202 6.2329024,35.244202 6.2329024,35.244202 C 6.2329024,35.244202 6.2329024,41.767099 6.2329024,41.767099 z M 19.419344,41.767099 C 19.419344,41.767099 25.977399,41.767099 25.977399,41.767099 C 25.977399,41.767099 25.977399,39.604524 25.977399,39.604524 C 25.977399,39.604524 19.419344,39.604524 19.419344,39.604524 C 19.419344,39.604524 19.419344,41.767099 19.419344,41.767099 z M 28.210301,33.011302 C 28.210301,33.011302 28.210301,44.000000 28.210301,44.000000 C 28.210301,44.000000 17.186440,44.000000 17.186440,44.000000 C 17.186440,44.000000 17.186440,37.371615 17.186440,37.371615 C 17.186440,37.371615 25.977399,37.371615 25.977399,37.371615 C 25.977399,37.371615 25.977399,35.244202 25.977399,35.244202 C 25.977399,35.244202 17.186440,35.244202 17.186440,35.244202 C 17.186440,35.244202 17.186440,33.011302 17.186440,33.011302 C 17.186440,33.011302 28.210301,33.011302 28.210301,33.011302 z M 32.605779,28.176276 C 32.605779,28.176276 32.605779,33.011302 32.605779,33.011302 C 32.605779,33.011302 41.396735,33.011302 41.396735,33.011302 C 41.396735,33.011302 41.396735,44.000000 41.396735,44.000000 C 41.396735,44.000000 30.372877,44.000000 30.372877,44.000000 C 30.372877,44.000000 30.372877,28.176276 30.372877,28.176276 C 30.372877,28.176276 32.605779,28.176276 32.605779,28.176276 z M 32.605779,41.767099 C 32.605779,41.767099 39.163834,41.767099 39.163834,41.767099 C 39.163834,41.767099 39.163834,35.244202 39.163834,35.244202 C 39.163834,35.244202 32.605779,35.244202 32.605779,35.244202 C 32.605779,35.244202 32.605779,41.767099 32.605779,41.767099 z M 45.866938,-44.788746 C 45.866938,-44.788746 45.792216,44.000000 45.792216,44.000000 C 45.792216,44.000000 43.559313,44.000000 43.559313,44.000000 C 43.559313,44.000000 43.669197,-44.788746 43.669197,-44.788746 C 43.669197,-44.788746 45.866938,-44.788746 45.866938,-44.788746 z"/><g id="g3361" transform="matrix(0.802284,0.000000,0.000000,0.802284,-107.8994,-28.91102)"><path style="fill:url(#linearGradient22529);fill-opacity:1;stroke:none;stroke-width:1" id="tail" d="M 188.89292,44.760980 C 176.35292,49.120980 172.53292,57.850980 173.98292,65.480980 C 175.44292,73.120980 179.07292,74.390980 193.07292,72.570980 C 183.80292,65.670980 179.44292,59.670980 188.89292,44.760980 z"/><g id="g5419" transform="translate(-237.1827,-109.6991)"><path id="path5352" d="M 309.19146 173.68797 A 15.554159 15.554159 0 1 1 278.08314,173.68797 A 15.554159 15.554159 0 1 1 309.19146 173.68797 z" transform="matrix(1.357648,0.000000,0.000000,0.754363,-2.043468,43.23668)" style="fill:url(#linearGradient22531);fill-opacity:1;stroke:none"/><path id="path5354" d="M 309.19146 173.68797 A 15.554159 15.554159 0 1 1 278.08314,173.68797 A 15.554159 15.554159 0 1 1 309.19146 173.68797 z" transform="matrix(1.357648,0.000000,0.000000,0.754363,-2.043468,43.23668)" style="fill:url(#radialGradient22533);fill-opacity:1;stroke:none"/><path id="path5356" d="M 309.19146 173.68797 A 15.554159 15.554159 0 1 1 278.08314,173.68797 A 15.554159 15.554159 0 1 1 309.19146 173.68797 z" transform="matrix(1.357648,0.000000,0.000000,0.754363,-2.043468,43.23668)" style="fill:url(#radialGradient22535);fill-opacity:1;stroke:none;stroke-opacity:1"/></g><g id="g3342"><path id="path4845" d="M 309.19146 173.68797 A 15.554159 15.554159 0 1 1 278.08314,173.68797 A 15.554159 15.554159 0 1 1 309.19146 173.68797 z" transform="matrix(0.305325,0.000000,0.000000,0.297351,52.22804,8.902103)" style="fill:#eaeaea;fill-opacity:1;stroke:none"/><path id="path4847" d="M 309.19146 173.68797 A 15.554159 15.554159 0 1 1 278.08314,173.68797 A 15.554159 15.554159 0 1 1 309.19146 173.68797 z" transform="matrix(0.305325,0.000000,0.000000,0.297351,52.22804,8.902103)" style="fill:url(#radialGradient22537);fill-opacity:1;stroke:none"/><path id="path4849" d="M 309.19146 173.68797 A 15.554159 15.554159 0 1 1 278.08314,173.68797 A 15.554159 15.554159 0 1 1 309.19146 173.68797 z" transform="matrix(0.305325,0.000000,0.000000,0.297351,52.22804,8.902103)" style="fill:url(#radialGradient22539);fill-opacity:1;stroke:url(#radialGradient22541);stroke-opacity:1"/><path id="path4851" d="M 360.53069 177.23495 A 3.9148138 3.9148138 0 1 1 352.70106,177.23495 A 3.9148138 3.9148138 0 1 1 360.53069 177.23495 z" transform="matrix(0.582483,0.000000,0.000000,0.561567,-66.35254,-39.32076)" style="fill:#404040;fill-opacity:1;stroke:none"/><path id="path4870" d="M 300.36342 168.64339 A 2.9426789 2.9426789 0 1 1 294.47807,168.64339 A 2.9426789 2.9426789 0 1 1 300.36342 168.64339 z" transform="matrix(0.308390,0.000000,0.000000,0.412793,49.94549,-11.31996)" style="fill:url(#radialGradient22543);fill-opacity:1;stroke:none"/></g><g id="g3354"><path id="path4905" d="M 309.19146 173.68797 A 15.554159 15.554159 0 1 1 278.08314,173.68797 A 15.554159 15.554159 0 1 1 309.19146 173.68797 z" transform="matrix(0.355197,0.000000,0.000000,0.345921,44.96393,1.489673)" style="fill:#eaeaea;fill-opacity:1;stroke:none"/><path id="path4907" d="M 309.19146 173.68797 A 15.554159 15.554159 0 1 1 278.08314,173.68797 A 15.554159 15.554159 0 1 1 309.19146 173.68797 z" transform="matrix(0.355197,0.000000,0.000000,0.345921,44.96393,1.489673)" style="fill:url(#radialGradient22545);fill-opacity:1;stroke:none"/><path id="path4909" d="M 309.19146 173.68797 A 15.554159 15.554159 0 1 1 278.08314,173.68797 A 15.554159 15.554159 0 1 1 309.19146 173.68797 z" transform="matrix(0.355197,0.000000,0.000000,0.345921,44.96393,1.489673)" style="fill:url(#radialGradient22547);fill-opacity:1;stroke:url(#radialGradient22549);stroke-opacity:1"/><path id="path4911" d="M 360.53069 177.23495 A 3.9148138 3.9148138 0 1 1 352.70106,177.23495 A 3.9148138 3.9148138 0 1 1 360.53069 177.23495 z" transform="matrix(0.677626,0.000000,0.000000,0.653293,-92.98569,-54.60994)" style="fill:#3f3f3f;fill-opacity:1;stroke:none"/><path id="path4913" d="M 300.36342 168.64339 A 2.9426789 2.9426789 0 1 1 294.47807,168.64339 A 2.9426789 2.9426789 0 1 1 300.36342 168.64339 z" transform="matrix(0.358762,0.000000,0.000000,0.480218,42.30855,-22.03548)" style="fill:url(#radialGradient22551);fill-opacity:1;stroke:none"/></g></g></g></svg>